# AST/ASF file generated using VICON BodyLanguage
# -----------------------------------------------
:version 1.10
:name VICON
:units
  mass 1.0
  length 0.45
  angle deg
:documentation
   .ast/.asf automatically generated from VICON data using
   VICON BodyBuilder and BodyLanguage model FoxedUp or BRILLIANT.MOD
:root
   order TX TY TZ RX RY RZ
   axis XYZ
   position 0 0 0  
   orientation 0 0 0 
:bonedata
  begin
     id 1 
     name lhipjoint
     direction 0.630082 -0.636569 0.44472 
     length 2.82754 
     axis 0 0 0  XYZ
  end
  begin
     id 2 
     name lfemur
     direction 0.34202 -0.939693 0  
     length 7.26371  
     axis 0 0 20  XYZ
    dof rx ry rz
    limits (-160.0 20.0)
           (-70.0 70.0)
           (-60.0 70.0)
  end
  begin
     id 3 
     name ltibia
     direction 0.34202 -0.939693 0   
     length 7.88616   
     axis 0 0 20   XYZ
    dof rx
    limits (-10.0 170.0)
  end
  begin
     id 4 
     name lfoot
     direction 0.0603448 -0.165796 0.984312   
     length 1.77861   
     axis -90 7.62852e-016 20   XYZ
    dof rx rz
    limits (-45.0 90.0)
           (-70.0 20.0)
  end
  begin
     id 5 
     name ltoes
     direction 1.53577e-011 -4.21876e-011 1   
     length 0.902235   
     axis -90 7.62852e-016 20   XYZ
    dof rx
    limits (-90.0 20.0)
  end
  begin
     id 6 
     name rhipjoint
     direction -0.656778 -0.61817 0.431866   
     length 2.9117  
     axis 0 0 0  XYZ 
  end
  begin
     id 7 
     name rfemur
     direction -0.34202 -0.939693 0   
     length 6.81603   
     axis 0 0 -20   XYZ
    dof rx ry rz
    limits (-160.0 20.0)
           (-70.0 70.0)
           (-70.0 60.0)
  end
  begin
     id 8 
     name rtibia
     direction -0.34202 -0.939693 0   
     length 8.05997   
     axis 0 0 -20   XYZ
    dof rx
    limits (-10.0 170.0)
 end
 begin
     id 9 
     name rfoot
     direction -0.0862404 -0.236944 0.967688   
     length 1.84899  
     axis -90 -7.62852e-016 -20   XYZ
    dof rx rz
    limits (-45.0 90.0)
           (-20.0 70.0)
  end
  begin
     id 10 
     name rtoes
     direction -1.53561e-011 -4.21798e-011 1   
     length 0.931579   
     axis -90 -7.62852e-016 -20   XYZ
    dof rx
    limits (-90.0 20.0)
  end
  begin
     id 11 
     name lowerback
     direction -0.0110203 0.991769 -0.127564   
     length 2.05686   
     axis 0 0 0   XYZ
    dof rx ry rz
    limits (-20.0 45.0)
           (-30.0 30.0)
           (-30.0 30.0)
  end
  begin
     id 12 
     name upperback
     direction 0.0109719 0.99993 -0.00432479   
     length 2.06234   
     axis 0 0 0   XYZ
    dof rx ry rz
    limits (-20.0 45.0)
           (-30.0 30.0)
           (-30.0 30.0)
  end
  begin
     id 13 
     name thorax
     direction 0.0173308 0.998351 0.0547306   
     length 2.09856   
     axis 0 0 0   XYZ
    dof rx ry rz
    limits (-20.0 45.0)
           (-30.0 30.0)
           (-30.0 30.0)
  end
  begin
     id 14 
     name lowerneck
     direction -0.0311736 0.989033 0.144366   
     length 1.98151   
     axis 0 0 0   XYZ
    dof rx ry rz
    limits (-20.0 45.0)
           (-30.0 30.0)
           (-30.0 30.0)
  end
  begin
     id 15 
     name upperneck
     direction 0.0421057 0.975772 -0.214698   
     length 2.01457   
     axis 0 0 0   XYZ
    dof rx ry rz
    limits (-20.0 45.0)
           (-30.0 30.0)
           (-30.0 30.0)
  end
  begin
     id 16
     name head
     direction 0.0136911 0.995958 -0.0887718  
     length 2.03562  
     axis 0 0 0   XYZ
    dof rx ry rz
    limits (-20.0 45.0)
           (-30.0 30.0)
           (-30.0 30.0)
  end
  begin
     id 17 
     name lclavicle
     direction 0.915335 0.396201 0.0720134  
     length 4.16217  
     axis 0 0 0   XYZ
    dof ry rz
    limits (-20.0 10.0)
           (0.0 20.0)
  end
  begin
     id 18 
     name lhumerus
     direction 1 -4.48965e-011 6.383e-018   
     length 4.93042   
     axis -180 -30 -90   XYZ
    dof rx ry rz
    limits (-60.0 90.0)
           (-90.0 90.0)
           (-90.0 90.0)
  end
  begin
     id 19
     name lradius
     direction 1 -4.48972e-011 8.8689e-027   
     length 3.68177   
     axis -180 -30 -90   XYZ
    dof rx
    limits (-10.0 170.0)
  end
  begin
     id 20
     name lwrist
     direction 1 -4.48953e-011 1.17971e-026   
     length 1.84089   
     axis -7.69454e-015 90 90   XYZ
    dof ry
    limits (-180.0 0.0)
 end
  begin
     id 21 
     name lhand
     direction 1 -4.49027e-011 2.35802e-026   
     length 0.721479   
     axis -1.50533e-014 90 90   XYZ
    dof rx rz
    limits (-90.0 90.0)
           (-45.0 45.0)
  end
  begin
     id 22 
     name lfingers
     direction 1 -4.48915e-011 4.72027e-026   
     length 0.581675   
     axis -3.01059e-014 90 90   XYZ
    dof rx
    limits (0.0 90.0)
  end
  begin
     id 23
     name lthumb
     direction 0.707107 -6.34948e-011 0.707107   
     length 0.835172   
     axis -90 45 -5.12164e-014   XYZ
    dof rx rz
    limits (-45.0 45.0)
           (-45.0 45.0)
  end
  begin
     id 24 
     name rclavicle
     direction -0.882781 0.469197 0.0234974   
     length 3.95647  
     axis 0 0 0   XYZ 
    dof ry rz
    limits (-10.0 20.0)
           (-20.0 0.0)
  end
  begin
     id 25 
     name rhumerus
     direction -1 -4.48965e-011 -1.54906e-018  
     length 5.07905   
     axis -180 30 90   XYZ
    dof rx ry rz
    limits (-90.0 60.0)
           (-90.0 90.0)
           (-90.0 90.0)
  end
  begin
     id 26 
     name rradius
     direction -1 -4.48972e-011 5.47489e-027   
     length 3.54394   
     axis -180 30 90   XYZ
    dof rx
    limits (-10.0 170.0)
  end
  begin
     id 27 
     name rwrist
     direction -1 -4.48955e-011 1.17969e-026   
     length 1.77197   
     axis -7.69454e-015 -90 -90   XYZ
    dof ry
    limits (-180.0 0.0)
  end
  begin
     id 28
     name rhand
     direction -1 -4.48982e-011 2.35888e-026   
     length 0.681156   
     axis -1.50533e-014 -90 -90   XYZ
    dof rx rz
    limits (-90.0 90.0)
           (-45.0 45.0)
  end
  begin
     id 29
     name rfingers
     direction -1 -4.48955e-011 4.71877e-026   
     length 0.549165   
     axis -3.01059e-014 -90 -90   XYZ
    dof rx
    limits (0.0 90.0)
  end
  begin
     id 30
     name rthumb
     direction -0.707107 -6.3491e-011 0.707107   
     length 0.788495   
     axis -90 -45 5.12164e-014   XYZ
    dof rx rz
    limits (-45.0 45.0)
           (-45.0 45.0)
  end
:hierarchy
  begin
    root lhipjoint rhipjoint lowerback
    lhipjoint lfemur
    lfemur ltibia
    ltibia lfoot
    lfoot ltoes
    rhipjoint rfemur
    rfemur rtibia
    rtibia rfoot
    rfoot rtoes
    lowerback upperback
    upperback thorax
    thorax lowerneck lclavicle rclavicle
    lowerneck upperneck
    upperneck head
    lclavicle lhumerus
    lhumerus lradius
    lradius lwrist
    lwrist lhand lthumb
    lhand lfingers
    rclavicle rhumerus
    rhumerus rradius
    rradius rwrist
    rwrist rhand rthumb
    rhand rfingers
  end

#!OML:ASF H:\Bending\Project 1\Capture day 1\Session 1\Subject.ASF
:FULLY-SPECIFIED
:DEGREES
353
root -9.06565 18.0229 -16.2597 216.697 86.9841 210.047
lowerback 4.73277 -0.320154 0.723226
upperback -2.90166 -0.226534 2.21249
thorax -5.66339 -0.0791654 1.91422
lowerneck -24.8218 -3.76635 -6.03756
upperneck 30.0582 -3.60327 2.88222
head 14.7535 -1.68211 1.5384
rclavicle -8.87077e-015 -7.95139e-016
rhumerus -41.7571 5.64317 -80.3999
rradius 38.2909
rwrist 22.443
rhand -15.2516 -10.4024
rfingers 7.12502
rthumb 10.9221 -40.0983
lclavicle -8.87077e-015 -7.95139e-016
lhumerus -39.2224 -4.52534 93.7713
lradius 42.104
lwrist 24.0344
lhand -33.1234 5.70689
lfingers 7.12502
lthumb -6.33331 35.5922
rfemur 4.57826 -3.23778 16.1765
rtibia 0
rfoot -11.6457 -18.1551
rtoes 10.7794
lfemur -8.95943 -18.3273 -10.4747
ltibia 20.9717
lfoot -22.7414 12.3136
ltoes -8.18723
354
root -9.0758 18.0224 -16.2564 217.036 86.9598 210.466
lowerback 4.7855 -0.330435 0.74488
upperback -2.88597 -0.238063 2.21524
thorax -5.67687 -0.0857493 1.9064
lowerneck -24.7818 -3.78427 -6.07853
upperneck 30.0476 -3.62737 2.91884
head 14.7435 -1.69189 1.55594
rclavicle -1.21756e-015 1.19271e-015
rhumerus -41.8007 5.8179 -80.5678
rradius 38.3988
rwrist 22.2087
rhand -15.4455 -10.5017
rfingers 7.12502
rthumb 10.735 -40.2074
lclavicle -1.21756e-015 1.19271e-015
lhumerus -39.2627 -4.63505 93.8637
lradius 41.9787
lwrist 24.1085
lhand -32.8704 5.75737
lfingers 7.12502
lthumb -6.08913 35.6499
rfemur 4.63233 -3.23753 16.2194
rtibia 1.43125e-014
rfoot -11.6266 -18.1544
rtoes 10.8979
lfemur -8.91784 -18.3388 -10.4405
ltibia 20.9841
lfoot -22.7278 12.3098
ltoes -8.21104
355
root -9.08573 18.0226 -16.2534 218.14 86.9557 211.633
lowerback 4.83146 -0.324741 0.799816
upperback -2.87869 -0.225493 2.21699
thorax -5.69613 -0.0815663 1.87653
lowerneck -24.7346 -3.80095 -6.1132
upperneck 30.0375 -3.6562 2.96536
head 14.7325 -1.70141 1.57568
rclavicle 1.49089e-016 3.18055e-015
rhumerus -41.887 5.98622 -80.7233
rradius 38.5112
rwrist 21.9572
rhand -15.4922 -10.3212
rfingers 7.12502
rthumb 10.69 -40.0293
lclavicle 1.49089e-016 3.18055e-015
lhumerus -39.3731 -4.81625 93.9607
lradius 41.8674
lwrist 24.2401
lhand -32.6655 5.81305
lfingers 7.12502
lthumb -5.89123 35.7112
rfemur 4.6559 -3.19764 16.287
rtibia 4.77083e-015
rfoot -11.5855 -18.1643
rtoes 10.9155
lfemur -8.88298 -18.3616 -10.3849
ltibia 20.9988
lfoot -22.7272 12.3662
ltoes -8.32066
356
root -9.09522 18.0235 -16.2508 219.566 86.9677 213.1
lowerback 4.86824 -0.307022 0.870958
upperback -2.88108 -0.195542 2.2157
thorax -5.7208 -0.0693748 1.83269
lowerneck -24.6935 -3.81465 -6.13721
upperneck 30.0389 -3.68314 3.00787
head 14.7276 -1.70929 1.59246
rclavicle 5.26779e-015 -1.19271e-014
rhumerus -42.0205 6.15826 -80.8661
rradius 38.6458
rwrist 21.7097
rhand -15.4073 -9.99057
rfingers 7.12502
rthumb 10.7719 -39.6944
lclavicle 5.26779e-015 -1.19271e-014
lhumerus -39.5298 -5.02482 94.0552
lradius 41.7548
lwrist 24.3733
lhand -32.5395 5.87453
lfingers 7.12502
lthumb -5.76958 35.776
rfemur 4.64905 -3.13551 16.358
rtibia 1.27222e-014
rfoot -11.5219 -18.1839
rtoes 10.8047
lfemur -8.85889 -18.3657 -10.325
ltibia 21.0036
lfoot -22.7137 12.4412
ltoes -8.51699
357
root -9.10427 18.0249 -16.2487 220.637 86.9879 214.19
lowerback 4.89422 -0.286263 0.930314
upperback -2.89323 -0.1627 2.20774
thorax -5.74952 -0.0554301 1.78823
lowerneck -24.6664 -3.82557 -6.14887
upperneck 30.0563 -3.70465 3.03495
head 14.7318 -1.71549 1.60196
rclavicle -1.36664e-015 1.86858e-014
rhumerus -42.1979 6.32918 -80.994
rradius 38.8057
rwrist 21.4904
rhand -15.2321 -9.66107
rfingers 7.12502
rthumb 10.9409 -39.356
lclavicle -1.36664e-015 1.86858e-014
lhumerus -39.7001 -5.20203 94.1301
lradius 41.6098
lwrist 24.4397
lhand -32.4876 5.9285
lfingers 7.12502
lthumb -5.71955 35.8313
rfemur 4.61856 -3.08071 16.4034
rtibia 6.36111e-015
rfoot -11.4523 -18.2034
rtoes 10.6388
lfemur -8.85197 -18.3164 -10.282
ltibia 20.9859
lfoot -22.6556 12.4767
ltoes -8.78396
358
root -9.11313 18.0266 -16.2468 220.759 87.0098 214.308
lowerback 4.90838 -0.272659 0.950409
upperback -2.91403 -0.143008 2.19107
thorax -5.78005 -0.0467154 1.75801
lowerneck -24.6517 -3.83495 -6.15134
upperneck 30.0858 -3.72033 3.04361
head 14.7431 -1.72073 1.60349
rclavicle 6.18717e-015 -1.66979e-014
rhumerus -42.408 6.48293 -81.1021
rradius 38.9762
rwrist 21.3214
rhand -15.0131 -9.44085
rfingers 7.12502
rthumb 11.1521 -39.1245
lclavicle 6.18717e-015 -1.66979e-014
lhumerus -39.8562 -5.30524 94.1697
lradius 41.4026
lwrist 24.3971
lhand -32.4752 5.95695
lfingers 7.12502
lthumb -5.70754 35.8601
rfemur 4.57408 -3.0595 16.4001
rtibia 1.90833e-014
rfoot -11.4011 -18.2097
rtoes 10.5481
lfemur -8.86715 -18.1899 -10.272
ltibia 20.9375
lfoot -22.5323 12.4218
ltoes -9.07489
359
root -9.12205 18.0284 -16.245 219.725 87.0277 213.253
lowerback 4.91133 -0.273443 0.91709
upperback -2.94122 -0.147212 2.16794
thorax -5.81014 -0.0479445 1.7534
lowerneck -24.6392 -3.84413 -6.15327
upperneck 30.1165 -3.73154 3.04023
head 14.7549 -1.72581 1.6008
rclavicle 1.81391e-015 -1.59028e-015
rhumerus -42.6348 6.60141 -81.1834
rradius 39.1289
rwrist 21.2177
rhand -14.7854 -9.3688
rfingers 7.12502
rthumb 11.3717 -39.0405
lclavicle 1.81391e-015 -1.59028e-015
lhumerus -39.9869 -5.3289 94.1696
lradius 41.1202
lwrist 24.253
lhand -32.4588 5.95167
lfingers 7.12502
lthumb -5.6917 35.8552
rfemur 4.52523 -3.08224 16.343
rtibia -1.59028e-015
rfoot -11.3876 -18.1934
rtoes 10.6431
lfemur -8.90312 -17.9902 -10.298
ltibia 20.8587
lfoot -22.3498 12.2562
ltoes -9.30196
360
root -9.13109 18.0299 -16.243 217.824 87.0362 211.324
lowerback 4.90632 -0.290132 0.836801
upperback -2.97141 -0.176468 2.1447
thorax -5.83804 -0.0597395 1.7775
lowerneck -24.6165 -3.85442 -6.16713
upperneck 30.1378 -3.74057 3.03831
head 14.7606 -1.73132 1.60112
rclavicle -2.01269e-015 -1.98785e-015
rhumerus -42.8619 6.67106 -81.2306
rradius 39.2316
rwrist 21.1868
rhand -14.5649 -9.42753
rfingers 7.12502
rthumb 11.5844 -39.0874
lclavicle -2.01269e-015 -1.98785e-015
lhumerus -40.0998 -5.305 94.141
lradius 40.7712
lwrist 24.0621
lhand -32.413 5.92154
lfingers 7.12502
lthumb -5.64745 35.8263
rfemur 4.48032 -3.14004 16.2485
rtibia -1.11319e-014
rfoot -11.4156 -18.1542
rtoes 10.9499
lfemur -8.95008 -17.7544 -10.3484
ltibia 20.7591
lfoot -22.1416 12.0029
ltoes -9.36175
361
root -9.14 18.0308 -16.2409 215.684 87.0337 209.158
lowerback 4.89827 -0.317886 0.734645
upperback -3.00047 -0.221897 2.12822
thorax -5.86244 -0.0784757 1.8225
lowerneck -24.5767 -3.86754 -6.20391
upperneck 30.1447 -3.75051 3.05116
head 14.7571 -1.73795 1.6112
rclavicle -3.05631e-015 1.19271e-015
rhumerus -43.0762 6.68403 -81.2377
rradius 39.2576
rwrist 21.2276
rhand -14.3524 -9.57879
rfingers 7.12502
rthumb 11.7893 -39.227
lclavicle -3.05631e-015 1.19271e-015
lhumerus -40.2119 -5.28339 94.1039
lradius 40.3768
lwrist 23.8963
lhand -32.3451 5.89151
lfingers 7.12502
lthumb -5.58193 35.798
rfemur 4.44553 -3.21108 16.1459
rtibia 1.74931e-014
rfoot -11.4704 -18.1022
rtoes 11.3894
lfemur -8.99268 -17.5455 -10.4034
ltibia 20.6547
lfoot -21.9583 11.7214
ltoes -9.16168
362
root -9.14828 18.0311 -16.2388 213.944 87.0236 207.405
lowerback 4.89181 -0.347847 0.644603
upperback -3.02415 -0.268771 2.1222
thorax -5.882 -0.0981065 1.87171
lowerneck -24.5235 -3.88525 -6.26692
upperneck 30.1415 -3.76422 3.08421
head 14.7477 -1.74645 1.63333
rclavicle 2.03754e-015 0
rhumerus -43.2692 6.63601 -81.2023
rradius 39.191
rwrist 21.3305
rhand -14.1469 -9.79506
rfingers 7.12502
rthumb 11.9875 -39.4318
lclavicle 2.03754e-015 0
lhumerus -40.3353 -5.29914 94.0739
lradius 39.9551
lwrist 23.8039
lhand -32.2924 5.88908
lfingers 7.12502
lthumb -5.53106 35.7969
rfemur 4.42436 -3.27227 16.0644
rtibia -3.18055e-014
rfoot -11.5254 -18.0532
rtoes 11.8157
lfemur -9.01617 -17.4299 -10.4443
ltibia 20.5625
lfoot -21.8474 11.4847
ltoes -8.66696
363
root -9.15548 18.0308 -16.2371 212.98 87.0116 206.447
lowerback 4.88966 -0.370986 0.596279
upperback -3.03923 -0.30285 2.12513
thorax -5.89542 -0.112833 1.90548
lowerneck -24.4702 -3.9083 -6.34766
upperneck 30.1401 -3.7832 3.13096
head 14.7403 -1.75723 1.66313
rclavicle -5.09386e-015 -1.47101e-014
rhumerus -43.4363 6.52352 -81.1265
rradius 39.0253
rwrist 21.4783
rhand -13.9581 -10.0693
rfingers 7.12502
rthumb 12.1695 -39.6954
lclavicle -5.09386e-015 -1.47101e-014
lhumerus -40.4654 -5.34582 94.0484
lradius 39.5063
lwrist 23.7774
lhand -32.2987 5.92842
lfingers 7.12502
lthumb -5.53709 35.8361
rfemur 4.41752 -3.30928 16.0213
rtibia -2.22639e-014
rfoot -11.5551 -18.0222
rtoes 12.0918
lfemur -9.01247 -17.451 -10.4612
ltibia 20.4954
lfoot -21.836 11.3502
ltoes -7.91534
364
root -9.16145 18.0302 -16.2361 212.81 87.0013 206.302
lowerback 4.89213 -0.382081 0.603216
upperback -3.04458 -0.316482 2.13155
thorax -5.90211 -0.119592 1.90972
lowerneck -24.4323 -3.9345 -6.42644
upperneck 30.154 -3.80536 3.17442
head 14.7432 -1.76944 1.69069
rclavicle 1.26725e-015 1.98785e-015
rhumerus -43.5748 6.34468 -81.0159
rradius 38.759
rwrist 21.6479
rhand -13.8121 -10.4016
rfingers 7.12502
rthumb 12.3103 -40.0192
lclavicle 1.26725e-015 1.98785e-015
lhumerus -40.5794 -5.36868 94.002
lradius 39.0084
lwrist 23.7514
lhand -32.3864 6.00072
lfingers 7.12502
lthumb -5.62182 35.9061
rfemur 4.42249 -3.32004 16.0171
rtibia 4.77083e-015
rfoot -11.5449 -18.016
rtoes 12.1524
lfemur -8.98333 -17.6091 -10.4565
ltibia 20.4585
lfoot -21.9197 11.3381
ltoes -7.02389
